<svg xmlns="http://www.w3.org/2000/svg" width="104" height="42" viewBox="0 0 104 42" role="img" aria-labelledby="title">
  <title id="title">Apple Pay</title>
  <rect width="104" height="42" rx="8" fill="#fff"/>
  <rect x=".5" y=".5" width="103" height="41" rx="7.5" fill="none" stroke="#E5E7EB"/>
  <path fill="#000" d="M29.1 13.4c.8-1 1.3-2.3 1.2-3.6-1.2.1-2.6.8-3.4 1.7-.8.9-1.4 2.1-1.2 3.4 1.3.1 2.6-.6 3.4-1.5Zm1.2 1.8c-1.9-.1-3.5 1.1-4.4 1.1-.9 0-2.3-1-3.8-1-1.9 0-3.8 1.1-4.8 2.9-2 3.5-.5 8.7 1.4 11.5 1 1.4 2.1 2.9 3.6 2.9 1.4-.1 2-.9 3.7-.9s2.2.9 3.8.9c1.6 0 2.6-1.4 3.5-2.8 1.1-1.6 1.6-3.1 1.6-3.2 0 0-3.1-1.2-3.1-4.8 0-3 2.5-4.4 2.6-4.5-1.4-2-3.5-2.1-4.1-2.1Z"/>
  <path fill="#000" d="M45.3 11.5c4.3 0 7.3 2.9 7.3 7.2 0 4.4-3.1 7.3-7.4 7.3h-4.8v7.6H37V11.5h8.3Zm-4.9 11.7h4c3 0 4.7-1.6 4.7-4.4 0-2.8-1.7-4.4-4.7-4.4h-4v8.8Zm13 5.8c0-2.8 2.2-4.5 6-4.7l4.4-.3v-1.2c0-1.8-1.2-2.8-3.3-2.8-1.9 0-3.1.9-3.4 2.3h-3.1c.2-2.9 2.7-5.1 6.6-5.1 3.8 0 6.4 2.1 6.4 5.3v11.1h-3.1V31h-.1c-.9 1.8-2.9 2.9-5 2.9-3.1 0-5.4-1.9-5.4-4.9Zm10.4-1.4v-1.2l-4 .2c-2 .1-3.1 1-3.1 2.3s1.1 2.2 2.8 2.2c2.4 0 4.3-1.6 4.3-3.5Zm7.4 12.2v-2.7c.2.1.8.1 1 .1 1.5 0 2.4-.6 2.9-2.3l.3-1-5.8-16.4h3.5l4.1 13.3h.1l4.1-13.3h3.4l-6 16.9c-1.4 4-3 5.4-6.3 5.4-.3 0-1-.1-1.3-.1Z"/>
</svg>
