<svg xmlns="http://www.w3.org/2000/svg" width="112" height="42" viewBox="0 0 112 42" role="img" aria-labelledby="title">
  <title id="title">Google Pay</title>
  <rect width="112" height="42" rx="8" fill="#fff"/>
  <rect x=".5" y=".5" width="111" height="41" rx="7.5" fill="none" stroke="#E5E7EB"/>
  <path fill="#4285F4" d="M24.8 21.1c0-.7-.1-1.3-.2-1.9H15v3.7h5.5c-.2 1.2-.9 2.2-1.9 2.9v2.4h3.1c1.8-1.7 3.1-4.1 3.1-7.1Z"/>
  <path fill="#34A853" d="M15 31c2.6 0 4.8-.9 6.4-2.3l-3.1-2.4c-.9.6-1.9.9-3.3.9-2.5 0-4.6-1.7-5.4-3.9H6.4v2.5C8 28.9 11.3 31 15 31Z"/>
  <path fill="#FBBC05" d="M9.6 23.3a6.3 6.3 0 0 1 0-4.2v-2.5H6.4a9.6 9.6 0 0 0 0 9.2l3.2-2.5Z"/>
  <path fill="#EA4335" d="M15 15.1c1.4 0 2.7.5 3.7 1.5l2.8-2.8A9.3 9.3 0 0 0 15 11.2c-3.7 0-7 2.1-8.6 5.4l3.2 2.5c.8-2.3 2.9-4 5.4-4Z"/>
  <path fill="#3C4043" d="M39.4 20.4v4.9h-3.1V11.9h4.6c1.2 0 2.3.4 3.1 1.2.9.8 1.3 1.8 1.3 3.1s-.4 2.3-1.3 3.1c-.8.8-1.9 1.1-3.1 1.1h-1.5Zm0-5.5v2.6h1.6c.4 0 .8-.1 1.1-.4.3-.3.4-.6.4-1s-.1-.7-.4-1c-.3-.2-.7-.3-1.1-.3h-1.6Zm10.5.8c1.4 0 2.5.4 3.3 1.1.8.8 1.2 1.8 1.2 3.2v5.3h-2.9v-1.2h-.1c-.7 1-1.7 1.5-3 1.5-1 0-1.9-.3-2.6-.9-.7-.6-1-1.4-1-2.3 0-1 .4-1.8 1.1-2.4.8-.6 1.8-.9 3-.9.9 0 1.8.2 2.5.6v-.4c0-.6-.2-1-.7-1.4-.4-.4-1-.6-1.6-.6-.9 0-1.7.4-2.2 1.2l-2.6-1.6c1.1-1.5 2.9-2.2 5.6-2.2Zm-1.9 6.7c0 .4.2.7.5.9.3.2.7.3 1.1.3.6 0 1.1-.2 1.5-.6.5-.4.7-.9.7-1.5-.5-.4-1.2-.6-2-.6-.5 0-.9.1-1.3.4-.3.3-.5.6-.5 1.1Zm18.1-6.4-5.8 13.4h-3.2l2.2-4.8-3.8-8.6h3.3l2.1 5.7h.1l2-5.7h3.1Z"/>
</svg>
