<svg xmlns="http://www.w3.org/2000/svg" width="118" height="42" viewBox="0 0 118 42" role="img" aria-labelledby="title">
  <title id="title">GrabPay</title>
  <rect width="118" height="42" rx="8" fill="#fff"/>
  <rect x=".5" y=".5" width="117" height="41" rx="7.5" fill="none" stroke="#E5E7EB"/>
  <path fill="#00B14F" d="M18 16.7c2.4-2.4 6.3-2.4 8.7 0l-2.2 2.2a3 3 0 0 0-4.3 0 3 3 0 0 0 0 4.3c1.1 1.1 2.8 1.2 4 .4v-1.2h-3.1v-2.8h6.2v5.3c-2.5 2.8-6.8 2.9-9.4.2a5.9 5.9 0 0 1 .1-8.4Z"/>
  <path fill="#00B14F" d="M31 17h3v1.6c.6-1.1 1.6-1.8 3.1-1.8v3.2h-.3c-1.7 0-2.8 1-2.8 3.3V29h-3V17Zm11.8 12.2c-2.2 0-3.8-1.3-3.8-3.5 0-2.3 1.8-3.4 4.7-3.4h2.3v-.2c0-1.2-.8-1.9-2.2-1.9-1.2 0-2.3.4-3.4 1l-.9-2.4c1.4-.8 3.1-1.3 5-1.3 3.1 0 4.8 1.5 4.8 4.4V29h-3.1v-1c-.8.8-1.8 1.2-3.4 1.2Zm.9-2.3c1.3 0 2.3-.7 2.3-1.8v-.7h-1.9c-1.3 0-1.9.4-1.9 1.2 0 .8.6 1.3 1.5 1.3Zm12.2 2.3c-1.7 0-2.8-.8-3.5-1.8V29h-3V12.6h3v6c.8-1 1.9-1.8 3.6-1.8 2.8 0 5.3 2.3 5.3 6.2s-2.5 6.2-5.4 6.2Zm-.8-2.8c1.7 0 3-1.4 3-3.4s-1.3-3.4-3-3.4-3 1.4-3 3.4 1.3 3.4 3 3.4Z"/>
  <path fill="#111827" d="M68.9 12.8h5.6c3.3 0 5.3 1.9 5.3 4.8 0 3.2-2.4 4.9-5.6 4.9h-2.1V29h-3.2V12.8Zm5.3 6.9c1.5 0 2.4-.8 2.4-2.1 0-1.3-.9-2-2.4-2h-2.1v4.1h2.1Zm10.1 9.5c-2.1 0-3.7-1.2-3.7-3.3 0-2.2 1.7-3.3 4.4-3.3h2.2v-.2c0-1.1-.7-1.7-2-1.7-1.1 0-2.2.4-3.2.9l-.9-2.3c1.3-.7 2.9-1.2 4.6-1.2 2.9 0 4.5 1.4 4.5 4.1V29h-2.9v-.9c-.8.7-1.8 1.1-3 1.1Zm.9-2.2c1.2 0 2.1-.6 2.1-1.7v-.6h-1.8c-1.2 0-1.8.4-1.8 1.1 0 .7.6 1.2 1.5 1.2Zm7.5 5.5 1.7-3.9-4.6-10.4h3.4l2.8 6.9 2.6-6.9h3.3l-6.2 14.3h-3Z"/>
</svg>
