<svg xmlns="http://www.w3.org/2000/svg" width="112" height="42" viewBox="0 0 112 42" role="img" aria-labelledby="title">
  <title id="title">HitPay</title>
  <rect width="112" height="42" rx="8" fill="#fff"/>
  <rect x=".5" y=".5" width="111" height="41" rx="7.5" fill="none" stroke="#E5E7EB"/>
  <rect x="13" y="12" width="18" height="18" rx="5" fill="#635BFF"/>
  <path fill="#fff" d="M18 17.2h3.1v2.6h3.7v-2.6H28v9.6h-3.2v-3.9h-3.7v3.9H18v-9.6Z"/>
  <path fill="#111827" d="M37.5 13.2h3.2v6.2h6.6v-6.2h3.2V29h-3.2v-6.6h-6.6V29h-3.2V13.2Zm16.1 0H57V16h-3.4v-2.8Zm.1 4.3h3.1V29h-3.1V17.5Zm8.8 11.7c-2.1 0-3.5-.8-3.5-3.6v-5.5h-1.4v-2.6H59v-3h3.1v3h2.8v2.6h-2.8V25c0 .8.3 1.1 1.1 1.1.6 0 1.1-.1 1.6-.4v2.5c-.6.6-1.4 1-2.3 1Zm4.1-16h5.7c3.4 0 5.5 2 5.5 5 0 3.3-2.5 5.1-5.8 5.1h-2.2V29h-3.2V13.2Zm5.5 7.3c1.6 0 2.5-.9 2.5-2.2 0-1.4-.9-2.2-2.6-2.2h-2.2v4.4h2.3Zm10.6 8.7c-2.2 0-3.8-1.2-3.8-3.4 0-2.3 1.8-3.4 4.6-3.4h2.3v-.2c0-1.2-.7-1.8-2.1-1.8-1.2 0-2.3.4-3.3.9l-.9-2.4c1.3-.8 2.9-1.2 4.7-1.2 3.1 0 4.7 1.5 4.7 4.3v7h-3v-1c-.8.8-1.7 1.2-3.2 1.2Zm.9-2.3c1.3 0 2.2-.7 2.2-1.8v-.6h-1.9c-1.3 0-1.9.4-1.9 1.2 0 .8.6 1.2 1.6 1.2Zm8.1 5.6 1.7-3.9-4.7-11.1h3.3l2.8 7.5 2.7-7.5h3.2l-6 15h-3Z"/>
</svg>
