<svg xmlns="http://www.w3.org/2000/svg" width="132" height="42" viewBox="0 0 132 42" role="img" aria-labelledby="title">
  <title id="title">PayNow</title>
  <rect width="132" height="42" rx="8" fill="#fff"/>
  <rect x=".5" y=".5" width="131" height="41" rx="7.5" fill="none" stroke="#E5E7EB"/>
  <path fill="#ED1B2F" d="M18 12h7.7c4.1 0 6.9 2.5 6.9 6.2 0 3.8-2.8 6.3-6.9 6.3h-3.3V30H18V12Zm7.4 8.8c1.8 0 2.9-1 2.9-2.6 0-1.5-1.1-2.5-2.9-2.5h-3v5.1h3Z"/>
  <path fill="#ED1B2F" d="M37.4 30.3c-2.8 0-4.8-1.6-4.8-4.2 0-2.7 2.1-4.1 5.6-4.1h2.9v-.5c0-1.5-.9-2.3-2.7-2.3-1.5 0-3 .5-4.3 1.3l-1.2-2.9c1.6-1 3.8-1.7 6.1-1.7 4 0 6.2 1.9 6.2 5.5V30h-4v-1.2c-.9 1-2.1 1.5-3.8 1.5Zm1.1-2.8c1.5 0 2.6-.8 2.6-2v-.9h-2.4c-1.5 0-2.2.5-2.2 1.4 0 .9.7 1.5 2 1.5Z"/>
  <path fill="#ED1B2F" d="m48.5 34.9 2.1-5-5.8-13.7h4.6l3.4 8.8 3.4-8.8h4.4l-7.9 18.7h-4.2Z"/>
  <path fill="#4A4A4A" d="M63.8 12h4.3l8.2 10.7V12h4.3v18h-4.3L68 19.2V30h-4.2V12Z"/>
  <path fill="#4A4A4A" d="M90.7 30.3c-4.4 0-7.6-3.1-7.6-7.2 0-4.2 3.2-7.2 7.6-7.2 4.3 0 7.5 3 7.5 7.2 0 4.1-3.2 7.2-7.5 7.2Zm0-3.5c2 0 3.4-1.5 3.4-3.7s-1.4-3.8-3.4-3.8-3.4 1.6-3.4 3.8 1.4 3.7 3.4 3.7Z"/>
  <path fill="#4A4A4A" d="M97.8 16.2h4.2l2.4 8.5 2.6-8.5h3.5l2.7 8.5 2.4-8.5h4.1L115.4 30h-4l-2.6-8-2.6 8h-4l-4.4-13.8Z"/>
</svg>
