<svg xmlns="http://www.w3.org/2000/svg" width="104" height="42" viewBox="0 0 104 42" role="img" aria-labelledby="title">
  <title id="title">Stripe</title>
  <rect width="104" height="42" rx="8" fill="#fff"/>
  <rect x=".5" y=".5" width="103" height="41" rx="7.5" fill="none" stroke="#E5E7EB"/>
  <path fill="#635BFF" d="M42.5 18.5c0-.9.7-1.2 1.8-1.2 1.6 0 3.6.5 5.2 1.4v-4.9c-1.7-.7-3.5-1-5.2-1-4.2 0-7.1 2.2-7.1 6 0 6 8.2 5 8.2 7.6 0 1-.9 1.3-2.1 1.3-1.7 0-4-.7-5.7-1.7v5c1.9.8 3.9 1.2 5.7 1.2 4.4 0 7.4-2.2 7.4-6.1 0-6.4-8.2-5.3-8.2-7.6Zm15.2-10.2-5.2 1.1v17c0 3.1 2.3 5.5 5.4 5.5 1.7 0 3-.3 3.7-.8v-4.3c-.7.3-4 .9-4-1.9v-7.2h4v-4.5h-4V8.3Zm10.9 6.5-.3-1.6h-4.6v18.5H69V19.3c1.3-1.7 3.5-1.4 4.2-1.2v-4.9c-.7-.3-3.2-.8-4.6 1.6Zm6.5-1.6h5.3v18.5h-5.3V13.2Zm0-5.2h5.3v4.3h-5.3V8Zm17.5 4.8c-2.1 0-3.4 1-4.1 1.7l-.3-1.3h-4.7v24.6l5.3-1.1v-5.9c.8.6 1.9 1.1 3.7 1.1 3.7 0 7.1-3 7.1-9.6 0-6.1-3.4-9.5-7-9.5Zm-1.3 14.5c-1.2 0-1.9-.4-2.5-1v-7.8c.6-.7 1.3-1.1 2.6-1.1 2 0 3.3 2.2 3.3 4.9 0 2.8-1.3 5-3.4 5Zm-70.9-8.8c0-.9.7-1.2 1.8-1.2 1.6 0 3.6.5 5.2 1.4v-4.9c-1.7-.7-3.5-1-5.2-1-4.2 0-7.1 2.2-7.1 6 0 6 8.2 5 8.2 7.6 0 1-.9 1.3-2.1 1.3-1.7 0-4-.7-5.7-1.7v5c1.9.8 3.9 1.2 5.7 1.2 4.4 0 7.4-2.2 7.4-6.1 0-6.4-8.2-5.3-8.2-7.6Z"/>
</svg>
