<svg xmlns="http://www.w3.org/2000/svg" width="88" height="42" viewBox="0 0 88 42" role="img" aria-labelledby="title">
  <title id="title">Visa</title>
  <rect width="88" height="42" rx="8" fill="#fff"/>
  <rect x=".5" y=".5" width="87" height="41" rx="7.5" fill="none" stroke="#E5E7EB"/>
  <path fill="#1A1F71" d="M35.8 28.9h-5.2L27.4 16h5.2l3.2 12.9Zm16.4-12.6c-1-.4-2.6-.8-4.5-.8-5 0-8.4 2.5-8.5 6.1 0 2.7 2.5 4.1 4.4 5 2 .9 2.7 1.5 2.7 2.3 0 1.2-1.6 1.8-3 1.8-2 0-3.1-.3-4.8-1l-.7-.3-.7 4.3c1.2.5 3.4 1 5.7 1 5.3 0 8.7-2.5 8.8-6.4 0-2.1-1.3-3.7-4.2-5-1.8-.9-2.9-1.5-2.9-2.3 0-.8.9-1.6 3-1.6 1.7 0 2.9.3 3.8.7l.5.2.7-4Zm13.3-.3h-4c-1.2 0-2.2.3-2.7 1.6l-7.7 17h5.4l1.1-2.9h6.6c.2.7.6 2.9.6 2.9h4.8L65.5 16Zm-6.4 11.8 2.1-5.5c0 .1.4-1.1.7-1.8l.4 1.6 1.2 5.7h-4.4ZM23 16l-5.1 12.6-.6-3c-.9-3-3.9-6.3-7.2-8l4.7 17h5.5L28.6 16H23Z"/>
  <path fill="#F7B600" d="M13.1 16h-8v.3c6.2 1.5 10.3 5.2 12 9.5l-1.8-8.1c-.3-1.2-1.2-1.7-2.2-1.7Z"/>
</svg>
